# Blender 4.4.1
# www.blender.org
mtllib cornerDouble.mtl
o Plane
v -0.500000 0.500000 -1.000000
v -0.500000 -0.500000 -1.000000
v -0.500000 0.500000 0.000000
v -0.500000 -0.500000 0.000000
v 0.500000 0.500000 0.000000
v 0.500000 -0.500000 0.000000
v 0.500000 0.500000 -1.000000
v 0.500000 -0.500000 -1.000000
vn -1.0000 -0.0000 -0.0000
vn -0.0000 -0.0000 1.0000
vn 1.0000 -0.0000 -0.0000
vt 0.000000 0.000000
vt 1.000000 0.000000
vt 1.000000 1.000000
vt 0.000000 1.000000
vt 0.000000 0.003383
vt 1.000000 0.003383
vt 0.000000 0.000922
vt 1.000000 0.000922
s 0
f 1/1/1 2/2/1 4/3/1 3/4/1
f 3/5/2 4/6/2 6/3/2 5/4/2
f 5/7/3 6/8/3 8/3/3 7/4/3
