# Blender 4.4.1
# www.blender.org
mtllib coneHollow1mAligned.mtl
o Cone
v 0.000000 1.000005 -0.999997
v 0.195090 0.980790 -0.999997
v 0.382683 0.923884 -0.999997
v 0.555570 0.831474 -0.999997
v 0.707107 0.707112 -0.999997
v 0.831470 0.555575 -0.999997
v 0.923879 0.382688 -0.999997
v 0.980785 0.195095 -0.999997
v 1.000000 0.000005 -0.999997
v 0.980785 -0.195085 -0.999997
v 0.923879 -0.382679 -0.999997
v 0.831470 -0.555565 -0.999997
v 0.707107 -0.707102 -0.999997
v 0.555570 -0.831465 -0.999997
v 0.382683 -0.923875 -0.999997
v 0.195090 -0.980780 -0.999997
v 0.000000 -0.999995 -0.999997
v -0.195090 -0.980780 -0.999997
v -0.382683 -0.923875 -0.999997
v -0.555570 -0.831465 -0.999997
v -0.707107 -0.707102 -0.999997
v -0.831470 -0.555565 -0.999997
v -0.923879 -0.382679 -0.999997
v -0.980785 -0.195085 -0.999997
v -1.000000 0.000005 -0.999997
v -0.980785 0.195095 -0.999997
v -0.923879 0.382688 -0.999997
v -0.831470 0.555575 -0.999997
v -0.707107 0.707112 -0.999997
v -0.555570 0.831474 -0.999997
v -0.382683 0.923884 -0.999997
v -0.195090 0.980790 -0.999997
v 0.000000 0.000005 0.000003
v -0.000000 0.882208 -1.000043
v 0.172109 0.865257 -1.000043
v 0.337605 0.815055 -1.000043
v 0.490126 0.733530 -1.000043
v 0.623812 0.623817 -1.000043
v 0.733525 0.490131 -1.000043
v 0.815049 0.337610 -1.000043
v 0.865252 0.172114 -1.000043
v 0.882203 0.000005 -1.000042
v 0.865252 -0.172104 -1.000042
v 0.815049 -0.337599 -1.000042
v 0.733525 -0.490121 -1.000042
v 0.623812 -0.623807 -1.000042
v 0.490126 -0.733520 -1.000042
v 0.337604 -0.815044 -1.000042
v 0.172109 -0.865247 -1.000042
v -0.000000 -0.882198 -1.000042
v -0.172109 -0.865247 -1.000042
v -0.337604 -0.815044 -1.000042
v -0.490126 -0.733520 -1.000042
v -0.623812 -0.623807 -1.000042
v -0.733525 -0.490121 -1.000042
v -0.815049 -0.337599 -1.000042
v -0.865252 -0.172104 -1.000042
v -0.882203 0.000005 -1.000042
v -0.865252 0.172114 -1.000043
v -0.815049 0.337610 -1.000043
v -0.733525 0.490131 -1.000043
v -0.623812 0.623817 -1.000043
v -0.490126 0.733530 -1.000043
v -0.337605 0.815055 -1.000043
v -0.172109 0.865257 -1.000043
vn 0.0695 0.7054 0.7054
vn 0.2058 0.6783 0.7054
vn 0.3341 0.6251 0.7054
vn 0.4497 0.5479 0.7054
vn 0.5479 0.4497 0.7054
vn 0.6251 0.3341 0.7054
vn 0.6783 0.2058 0.7054
vn 0.7054 0.0695 0.7054
vn 0.7054 -0.0695 0.7054
vn 0.6783 -0.2058 0.7054
vn 0.6251 -0.3341 0.7054
vn 0.5479 -0.4497 0.7054
vn 0.4497 -0.5479 0.7054
vn 0.3341 -0.6251 0.7054
vn 0.2058 -0.6783 0.7054
vn 0.0695 -0.7054 0.7054
vn -0.0695 -0.7054 0.7054
vn -0.2058 -0.6783 0.7054
vn -0.3341 -0.6251 0.7054
vn -0.4497 -0.5479 0.7054
vn -0.5479 -0.4497 0.7054
vn -0.6251 -0.3341 0.7054
vn -0.6783 -0.2058 0.7054
vn -0.7054 -0.0695 0.7054
vn -0.7054 0.0695 0.7054
vn -0.6783 0.2058 0.7054
vn -0.6251 0.3341 0.7054
vn -0.5479 0.4497 0.7054
vn -0.4497 0.5479 0.7054
vn -0.3341 0.6251 0.7054
vn -0.0002 -0.0003 -1.0000
vn -0.2058 0.6783 0.7054
vn -0.0695 0.7054 0.7054
vn -0.0004 0.0001 -1.0000
vn 0.0003 0.0002 -1.0000
vn 0.0002 -0.0003 -1.0000
vn -0.0003 0.0002 -1.0000
vn 0.0004 0.0001 -1.0000
vn -0.0000 0.0004 -1.0000
vn -0.0003 -0.0002 -1.0000
vn 0.0004 -0.0000 -1.0000
vn 0.0001 -0.0004 -1.0000
vn 0.0001 0.0004 -1.0000
vn -0.0002 0.0003 -1.0000
vn -0.0000 -0.0004 -1.0000
vn -0.0004 -0.0001 -1.0000
vn 0.0002 0.0003 -1.0000
vn 0.0004 -0.0001 -1.0000
vn -0.0004 -0.0000 -1.0000
vn -0.0001 0.0004 -1.0000
vn 0.0003 -0.0002 -1.0000
vn -0.0001 -0.0004 -1.0000
vn -0.0737 -0.7479 -0.6597
vn -0.2181 -0.7191 -0.6597
vn -0.3543 -0.6628 -0.6597
vn -0.4767 -0.5809 -0.6597
vn -0.5809 -0.4767 -0.6597
vn -0.6628 -0.3543 -0.6597
vn -0.7191 -0.2181 -0.6597
vn -0.7479 -0.0737 -0.6597
vn -0.7479 0.0737 -0.6597
vn -0.7191 0.2181 -0.6597
vn -0.6628 0.3542 -0.6597
vn -0.5809 0.4767 -0.6597
vn -0.4767 0.5809 -0.6597
vn -0.3543 0.6628 -0.6597
vn -0.2181 0.7191 -0.6597
vn -0.0737 0.7479 -0.6597
vn 0.0737 0.7479 -0.6597
vn 0.2181 0.7191 -0.6597
vn 0.3543 0.6628 -0.6597
vn 0.4767 0.5809 -0.6597
vn 0.5809 0.4767 -0.6597
vn 0.6628 0.3542 -0.6597
vn 0.7191 0.2181 -0.6597
vn 0.7479 0.0737 -0.6597
vn 0.7479 -0.0737 -0.6597
vn 0.7191 -0.2181 -0.6597
vn 0.6628 -0.3543 -0.6597
vn 0.5809 -0.4767 -0.6597
vn 0.4767 -0.5809 -0.6597
vn 0.3543 -0.6628 -0.6597
vn 0.2181 -0.7191 -0.6597
vn 0.0737 -0.7479 -0.6597
vt 0.250000 0.490000
vt 0.250000 0.250000
vt 0.296822 0.485388
vt 0.341844 0.471731
vt 0.383337 0.449553
vt 0.419706 0.419706
vt 0.449553 0.383337
vt 0.471731 0.341844
vt 0.485388 0.296822
vt 0.490000 0.250000
vt 0.485388 0.203178
vt 0.471731 0.158156
vt 0.449553 0.116663
vt 0.419706 0.080294
vt 0.383337 0.050447
vt 0.341844 0.028269
vt 0.296822 0.014612
vt 0.250000 0.010000
vt 0.203178 0.014612
vt 0.158156 0.028269
vt 0.116663 0.050447
vt 0.080294 0.080294
vt 0.050447 0.116663
vt 0.028269 0.158156
vt 0.014612 0.203178
vt 0.010000 0.250000
vt 0.014612 0.296822
vt 0.028269 0.341844
vt 0.050447 0.383337
vt 0.080294 0.419706
vt 0.116663 0.449553
vt 0.158156 0.471731
vt 0.203178 0.485388
vt 0.000000 0.000000
s 0
f 1/1/1 33/2/1 2/3/1
f 2/3/2 33/2/2 3/4/2
f 3/4/3 33/2/3 4/5/3
f 4/5/4 33/2/4 5/6/4
f 5/6/5 33/2/5 6/7/5
f 6/7/6 33/2/6 7/8/6
f 7/8/7 33/2/7 8/9/7
f 8/9/8 33/2/8 9/10/8
f 9/10/9 33/2/9 10/11/9
f 10/11/10 33/2/10 11/12/10
f 11/12/11 33/2/11 12/13/11
f 12/13/12 33/2/12 13/14/12
f 13/14/13 33/2/13 14/15/13
f 14/15/14 33/2/14 15/16/14
f 15/16/15 33/2/15 16/17/15
f 16/17/16 33/2/16 17/18/16
f 17/18/17 33/2/17 18/19/17
f 18/19/18 33/2/18 19/20/18
f 19/20/19 33/2/19 20/21/19
f 20/21/20 33/2/20 21/22/20
f 21/22/21 33/2/21 22/23/21
f 22/23/22 33/2/22 23/24/22
f 23/24/23 33/2/23 24/25/23
f 24/25/24 33/2/24 25/26/24
f 25/26/25 33/2/25 26/27/25
f 26/27/26 33/2/26 27/28/26
f 27/28/27 33/2/27 28/29/27
f 28/29/28 33/2/28 29/30/28
f 29/30/29 33/2/29 30/31/29
f 30/31/30 33/2/30 31/32/30
f 19/20/31 20/21/31 53/21/31 52/20/31
f 31/32/32 33/2/32 32/33/32
f 32/33/33 33/2/33 1/1/33
f 26/27/34 27/28/34 60/28/34 59/27/34
f 6/7/35 7/8/35 40/8/35 39/7/35
f 13/14/36 14/15/36 47/15/36 46/14/36
f 20/21/31 21/22/31 54/22/31 53/21/31
f 27/28/37 28/29/37 61/29/37 60/28/37
f 7/8/38 8/9/38 41/9/38 40/8/38
f 1/1/39 2/3/39 35/3/39 34/1/39
f 14/15/36 15/16/36 48/16/36 47/15/36
f 21/22/40 22/23/40 55/23/40 54/22/40
f 28/29/37 29/30/37 62/30/37 61/29/37
f 8/9/41 9/10/41 42/10/41 41/9/41
f 15/16/42 16/17/42 49/17/42 48/16/42
f 22/23/40 23/24/40 56/24/40 55/23/40
f 2/3/43 3/4/43 36/4/43 35/3/43
f 29/30/44 30/31/44 63/31/44 62/30/44
f 9/10/41 10/11/41 43/11/41 42/10/41
f 16/17/45 17/18/45 50/18/45 49/17/45
f 23/24/46 24/25/46 57/25/46 56/24/46
f 3/4/47 4/5/47 37/5/47 36/4/47
f 30/31/44 31/32/44 64/32/44 63/31/44
f 10/11/48 11/12/48 44/12/48 43/11/48
f 17/18/45 18/19/45 51/19/45 50/18/45
f 24/25/49 25/26/49 58/26/49 57/25/49
f 4/5/47 5/6/47 38/6/47 37/5/47
f 31/32/50 32/33/50 65/33/50 64/32/50
f 11/12/51 12/13/51 45/13/51 44/12/51
f 18/19/52 19/20/52 52/20/52 51/19/52
f 25/26/49 26/27/49 59/27/49 58/26/49
f 5/6/35 6/7/35 39/7/35 38/6/35
f 32/33/39 1/1/39 34/1/39 65/33/39
f 12/13/51 13/14/51 46/14/51 45/13/51
f 34/1/53 35/3/53 33/34/53
f 35/3/54 36/4/54 33/34/54
f 36/4/55 37/5/55 33/34/55
f 37/5/56 38/6/56 33/34/56
f 38/6/57 39/7/57 33/34/57
f 39/7/58 40/8/58 33/34/58
f 40/8/59 41/9/59 33/34/59
f 41/9/60 42/10/60 33/34/60
f 42/10/61 43/11/61 33/34/61
f 43/11/62 44/12/62 33/34/62
f 44/12/63 45/13/63 33/34/63
f 45/13/64 46/14/64 33/34/64
f 46/14/65 47/15/65 33/34/65
f 47/15/66 48/16/66 33/34/66
f 48/16/67 49/17/67 33/34/67
f 49/17/68 50/18/68 33/34/68
f 50/18/69 51/19/69 33/34/69
f 51/19/70 52/20/70 33/34/70
f 52/20/71 53/21/71 33/34/71
f 53/21/72 54/22/72 33/34/72
f 54/22/73 55/23/73 33/34/73
f 55/23/74 56/24/74 33/34/74
f 56/24/75 57/25/75 33/34/75
f 57/25/76 58/26/76 33/34/76
f 58/26/77 59/27/77 33/34/77
f 59/27/78 60/28/78 33/34/78
f 60/28/79 61/29/79 33/34/79
f 61/29/80 62/30/80 33/34/80
f 62/30/81 63/31/81 33/34/81
f 63/31/82 64/32/82 33/34/82
f 64/32/83 65/33/83 33/34/83
f 65/33/84 34/1/84 33/34/84
