# Blender 4.4.1
# www.blender.org
mtllib tubeMushroom.mtl
o Cylinder
v -0.001177 1.501429 0.007627
v 0.000000 1.000000 10.417538
v 0.291458 1.472607 0.007627
v 0.195090 0.980785 10.417538
v 0.572848 1.387249 0.007627
v 0.382683 0.923879 10.417538
v 0.832178 1.248634 0.007627
v 0.555570 0.831470 10.417538
v 1.059483 1.062089 0.007627
v 0.707107 0.707107 10.417538
v 1.246027 0.834785 0.007627
v 0.831470 0.555570 10.417538
v 1.384642 0.575454 0.007627
v 0.923879 0.382683 10.417538
v 1.470001 0.294065 0.007627
v 0.980785 0.195090 10.417538
v 1.498823 0.001429 0.007627
v 1.000000 0.000000 10.417538
v 1.470001 -0.291206 0.007627
v 0.980785 -0.195090 10.417538
v 1.384642 -0.572596 0.007627
v 0.923879 -0.382684 10.417538
v 1.246027 -0.831926 0.007627
v 0.831470 -0.555570 10.417538
v 1.059483 -1.059231 0.007627
v 0.707107 -0.707107 10.417538
v 0.832178 -1.245775 0.007627
v 0.555570 -0.831470 10.417538
v 0.572848 -1.384390 0.007627
v 0.382683 -0.923880 10.417538
v 0.291458 -1.469749 0.007627
v 0.195090 -0.980785 10.417538
v -0.001177 -1.498571 0.007627
v 0.000000 -1.000000 10.417538
v -0.293813 -1.469749 0.007627
v -0.195090 -0.980785 10.417538
v -0.575202 -1.384390 0.007627
v -0.382683 -0.923880 10.417538
v -0.834532 -1.245775 0.007627
v -0.555570 -0.831470 10.417538
v -1.061837 -1.059231 0.007627
v -0.707107 -0.707107 10.417538
v -1.248381 -0.831926 0.007627
v -0.831470 -0.555570 10.417538
v -1.386996 -0.572596 0.007627
v -0.923879 -0.382684 10.417538
v -1.472355 -0.291206 0.007627
v -0.980785 -0.195090 10.417538
v -1.501177 0.001429 0.007627
v -1.000000 0.000000 10.417538
v -1.472355 0.294065 0.007627
v -0.980785 0.195090 10.417538
v -1.386996 0.575454 0.007627
v -0.923879 0.382683 10.417538
v -1.248381 0.834785 0.007627
v -0.831470 0.555570 10.417538
v -1.061837 1.062089 0.007627
v -0.707107 0.707107 10.417538
v -0.834532 1.248634 0.007627
v -0.555570 0.831470 10.417538
v -0.575202 1.387249 0.007627
v -0.382683 0.923879 10.417538
v -0.293813 1.472607 0.007627
v -0.195090 0.980785 10.417538
v 0.000000 0.913372 1.791016
v 0.178190 0.895821 1.791016
v 0.349532 0.843845 1.791016
v 0.507442 0.759441 1.791016
v 0.645851 0.645851 1.791016
v 0.759441 0.507442 1.791016
v 0.843845 0.349532 1.791016
v 0.895821 0.178190 1.791016
v 0.913372 -0.000000 1.791016
v 0.895821 -0.178190 1.791016
v 0.843845 -0.349532 1.791016
v 0.759441 -0.507442 1.791016
v 0.645851 -0.645851 1.791016
v 0.507442 -0.759441 1.791016
v 0.349532 -0.843845 1.791016
v 0.178190 -0.895822 1.791016
v 0.000000 -0.913372 1.791016
v -0.178190 -0.895822 1.791016
v -0.349532 -0.843845 1.791016
v -0.507442 -0.759441 1.791016
v -0.645851 -0.645851 1.791016
v -0.759441 -0.507442 1.791016
v -0.843845 -0.349532 1.791016
v -0.895821 -0.178190 1.791016
v -0.913372 -0.000000 1.791016
v -0.895821 0.178190 1.791016
v -0.843845 0.349532 1.791016
v -0.759441 0.507442 1.791016
v -0.645851 0.645851 1.791016
v -0.507442 0.759441 1.791016
v -0.349532 0.843845 1.791016
v -0.178190 0.895821 1.791016
v 0.005885 2.692854 4.166420
v 0.532629 2.640974 4.166420
v 1.039130 2.487329 4.166420
v 1.505925 2.237822 4.166420
v 1.915074 1.902042 4.166420
v 2.250853 1.492894 4.166420
v 2.500360 1.026099 4.166420
v 2.654006 0.519598 4.166420
v 2.705885 -0.007146 4.166420
v 2.654006 -0.533890 4.166420
v 2.500360 -1.040391 4.166420
v 2.250853 -1.507186 4.166420
v 1.915074 -1.916334 4.166420
v 1.505925 -2.252114 4.166420
v 1.039130 -2.501621 4.166420
v 0.532629 -2.655266 4.166420
v 0.005885 -2.707146 4.166420
v -0.520858 -2.655266 4.166420
v -1.027360 -2.501621 4.166420
v -1.494154 -2.252114 4.166420
v -1.903303 -1.916334 4.166420
v -2.239082 -1.507186 4.166420
v -2.488589 -1.040391 4.166420
v -2.642235 -0.533890 4.166420
v -2.694114 -0.007146 4.166420
v -2.642235 0.519598 4.166420
v -2.488589 1.026099 4.166420
v -2.239082 1.492894 4.166420
v -1.903303 1.902042 4.166420
v -1.494154 2.237822 4.166420
v -1.027360 2.487329 4.166420
v -0.520858 2.640974 4.166420
vn 0.0979 0.9940 0.0479
vn 0.2900 0.9558 0.0478
vn 0.4709 0.8809 0.0478
vn 0.6337 0.7721 0.0478
vn 0.7721 0.6337 0.0477
vn 0.8809 0.4709 0.0477
vn 0.9559 0.2900 0.0477
vn 0.9941 0.0979 0.0476
vn 0.9941 -0.0979 0.0476
vn 0.9559 -0.2900 0.0476
vn 0.8809 -0.4709 0.0476
vn 0.7721 -0.6337 0.0476
vn 0.6337 -0.7721 0.0476
vn 0.4709 -0.8809 0.0476
vn 0.2900 -0.9559 0.0476
vn 0.0979 -0.9941 0.0476
vn -0.0979 -0.9941 0.0476
vn -0.2900 -0.9559 0.0476
vn -0.4709 -0.8809 0.0477
vn -0.6337 -0.7721 0.0477
vn -0.7721 -0.6337 0.0477
vn -0.8809 -0.4709 0.0478
vn -0.9558 -0.2900 0.0478
vn -0.9940 -0.0979 0.0478
vn -0.9940 0.0979 0.0479
vn -0.9558 0.2900 0.0479
vn -0.8809 0.4709 0.0479
vn -0.7721 0.6337 0.0479
vn -0.6337 0.7721 0.0479
vn -0.4709 0.8809 0.0479
vn 0.9951 -0.0980 0.0100
vn -0.2900 0.9558 0.0479
vn -0.0979 0.9940 0.0479
vn -0.4714 -0.8819 0.0100
vn -0.7730 0.6344 0.0100
vn 0.7730 0.6344 0.0100
vn 0.4714 -0.8819 0.0100
vn -0.9951 -0.0980 0.0100
vn 0.0980 0.9951 0.0100
vn 0.9569 -0.2903 0.0100
vn -0.6344 -0.7730 0.0100
vn -0.6344 0.7730 0.0100
vn 0.8819 0.4714 0.0100
vn 0.2903 -0.9569 0.0100
vn -0.9951 0.0980 0.0100
vn 0.2903 0.9569 0.0100
vn 0.8819 -0.4714 0.0100
vn -0.7730 -0.6344 0.0100
vn -0.4714 0.8819 0.0100
vn 0.9569 0.2903 0.0100
vn -0.0980 -0.9951 0.0100
vn 0.0980 -0.9951 0.0100
vn -0.9569 0.2903 0.0100
vn 0.4714 0.8819 0.0100
vn 0.7730 -0.6344 0.0100
vn -0.8819 -0.4714 0.0100
vn -0.2903 0.9569 0.0100
vn 0.9951 0.0980 0.0100
vn -0.2903 -0.9569 0.0100
vn -0.8819 0.4714 0.0100
vn 0.6344 0.7730 0.0100
vn 0.6344 -0.7730 0.0100
vn -0.9569 -0.2903 0.0100
vn -0.0980 0.9951 0.0100
vn -0.9562 -0.0942 0.2773
vn 0.0942 0.9560 0.2777
vn 0.9203 -0.2792 0.2740
vn -0.6098 -0.7431 0.2755
vn -0.6093 0.7425 0.2784
vn 0.8478 0.4531 0.2755
vn 0.2792 -0.9204 0.2738
vn -0.9560 0.0942 0.2777
vn 0.2789 0.9194 0.2773
vn 0.8482 -0.4534 0.2738
vn -0.7430 -0.6098 0.2760
vn -0.4528 0.8471 0.2783
vn 0.9200 0.2791 0.2751
vn -0.0943 -0.9570 0.2743
vn 0.0943 -0.9571 0.2740
vn -0.9192 0.2788 0.2780
vn 0.4530 0.8474 0.2769
vn 0.7435 -0.6102 0.2737
vn -0.8475 -0.4530 0.2765
vn -0.2788 0.9192 0.2782
vn 0.9569 0.0942 0.2747
vn -0.2791 -0.9201 0.2747
vn -0.8471 0.4528 0.2782
vn 0.6097 0.7429 0.2765
vn 0.6102 -0.7435 0.2736
vn -0.9195 -0.2789 0.2769
vn -0.0942 0.9560 0.2780
vn 0.9570 -0.0943 0.2743
vn -0.4532 -0.8479 0.2751
vn -0.7425 0.6093 0.2783
vn 0.7430 0.6098 0.2760
vn 0.4534 -0.8483 0.2737
vn -0.0784 -0.7957 -0.6006
vn -0.2322 -0.7653 -0.6003
vn -0.3771 -0.7055 -0.6000
vn -0.5077 -0.6186 -0.5996
vn -0.6189 -0.5079 -0.5992
vn -0.7063 -0.3775 -0.5988
vn -0.7666 -0.2326 -0.5985
vn -0.7975 -0.0786 -0.5981
vn -0.7978 0.0786 -0.5978
vn -0.7673 0.2328 -0.5976
vn -0.7073 0.3780 -0.5974
vn -0.6200 0.5088 -0.5973
vn -0.5088 0.6200 -0.5972
vn -0.3781 0.7073 -0.5973
vn -0.2328 0.7674 -0.5974
vn -0.0786 0.7980 -0.5976
vn 0.0786 0.7978 -0.5978
vn 0.2326 0.7669 -0.5981
vn 0.3777 0.7065 -0.5985
vn 0.5081 0.6191 -0.5989
vn 0.6188 0.5079 -0.5992
vn 0.7058 0.3772 -0.5996
vn 0.7655 0.2322 -0.6000
vn 0.7959 0.0784 -0.6004
vn 0.7957 -0.0784 -0.6007
vn 0.7649 -0.2320 -0.6009
vn 0.7048 -0.3767 -0.6011
vn 0.6177 -0.5069 -0.6012
vn 0.5069 -0.6177 -0.6012
vn 0.3767 -0.7047 -0.6012
vn 0.2320 -0.7648 -0.6011
vn 0.0783 -0.7955 -0.6009
vt 1.000000 0.500000
vt 1.000000 1.000000
vt 0.968750 1.000000
vt 0.968750 0.500000
vt 0.937500 1.000000
vt 0.937500 0.500000
vt 0.906250 1.000000
vt 0.906250 0.500000
vt 0.875000 1.000000
vt 0.875000 0.500000
vt 0.843750 1.000000
vt 0.843750 0.500000
vt 0.812500 1.000000
vt 0.812500 0.500000
vt 0.781250 1.000000
vt 0.781250 0.500000
vt 0.750000 1.000000
vt 0.750000 0.500000
vt 0.718750 1.000000
vt 0.718750 0.500000
vt 0.687500 1.000000
vt 0.687500 0.500000
vt 0.656250 1.000000
vt 0.656250 0.500000
vt 0.625000 1.000000
vt 0.625000 0.500000
vt 0.593750 1.000000
vt 0.593750 0.500000
vt 0.562500 1.000000
vt 0.562500 0.500000
vt 0.531250 1.000000
vt 0.531250 0.500000
vt 0.500000 1.000000
vt 0.500000 0.500000
vt 0.468750 1.000000
vt 0.468750 0.500000
vt 0.437500 1.000000
vt 0.437500 0.500000
vt 0.406250 1.000000
vt 0.406250 0.500000
vt 0.375000 1.000000
vt 0.375000 0.500000
vt 0.343750 1.000000
vt 0.343750 0.500000
vt 0.312500 1.000000
vt 0.312500 0.500000
vt 0.281250 1.000000
vt 0.281250 0.500000
vt 0.250000 1.000000
vt 0.250000 0.500000
vt 0.218750 1.000000
vt 0.218750 0.500000
vt 0.187500 1.000000
vt 0.187500 0.500000
vt 0.156250 1.000000
vt 0.156250 0.500000
vt 0.125000 1.000000
vt 0.125000 0.500000
vt 0.093750 1.000000
vt 0.093750 0.500000
vt 0.062500 1.000000
vt 0.062500 0.500000
vt 0.031250 1.000000
vt 0.031250 0.500000
vt 0.000000 1.000000
vt 0.000000 0.500000
s 0
f 1/1/1 2/2/1 4/3/1 3/4/1
f 3/4/2 4/3/2 6/5/2 5/6/2
f 5/6/3 6/5/3 8/7/3 7/8/3
f 7/8/4 8/7/4 10/9/4 9/10/4
f 9/10/5 10/9/5 12/11/5 11/12/5
f 11/12/6 12/11/6 14/13/6 13/14/6
f 13/14/7 14/13/7 16/15/7 15/16/7
f 15/16/8 16/15/8 18/17/8 17/18/8
f 17/18/9 18/17/9 20/19/9 19/20/9
f 19/20/10 20/19/10 22/21/10 21/22/10
f 21/22/11 22/21/11 24/23/11 23/24/11
f 23/24/12 24/23/12 26/25/12 25/26/12
f 25/26/13 26/25/13 28/27/13 27/28/13
f 27/28/14 28/27/14 30/29/14 29/30/14
f 29/30/15 30/29/15 32/31/15 31/32/15
f 31/32/16 32/31/16 34/33/16 33/34/16
f 33/34/17 34/33/17 36/35/17 35/36/17
f 35/36/18 36/35/18 38/37/18 37/38/18
f 37/38/19 38/37/19 40/39/19 39/40/19
f 39/40/20 40/39/20 42/41/20 41/42/20
f 41/42/21 42/41/21 44/43/21 43/44/21
f 43/44/22 44/43/22 46/45/22 45/46/22
f 45/46/23 46/45/23 48/47/23 47/48/23
f 47/48/24 48/47/24 50/49/24 49/50/24
f 49/50/25 50/49/25 52/51/25 51/52/25
f 51/52/26 52/51/26 54/53/26 53/54/26
f 53/54/27 54/53/27 56/55/27 55/56/27
f 55/56/28 56/55/28 58/57/28 57/58/28
f 57/58/29 58/57/29 60/59/29 59/60/29
f 59/60/30 60/59/30 62/61/30 61/62/30
f 52/51/31 50/49/31 89/49/31 90/51/31
f 61/62/32 62/61/32 64/63/32 63/64/32
f 63/64/33 64/63/33 2/65/33 1/66/33
f 8/7/34 6/5/34 67/5/34 68/7/34
f 26/25/35 24/23/35 76/23/35 77/25/35
f 44/43/36 42/41/36 85/41/36 86/43/36
f 62/61/37 60/59/37 94/59/37 95/61/37
f 18/17/38 16/15/38 72/15/38 73/17/38
f 36/35/39 34/33/39 81/33/39 82/35/39
f 54/53/40 52/51/40 90/51/40 91/53/40
f 10/9/41 8/7/41 68/7/41 69/9/41
f 28/27/42 26/25/42 77/25/42 78/27/42
f 46/45/43 44/43/43 86/43/43 87/45/43
f 64/63/44 62/61/44 95/61/44 96/63/44
f 20/19/45 18/17/45 73/17/45 74/19/45
f 38/37/46 36/35/46 82/35/46 83/37/46
f 56/55/47 54/53/47 91/53/47 92/55/47
f 12/11/48 10/9/48 69/9/48 70/11/48
f 30/29/49 28/27/49 78/27/49 79/29/49
f 48/47/50 46/45/50 87/45/50 88/47/50
f 4/3/51 2/2/51 65/2/51 66/3/51
f 2/65/52 64/63/52 96/63/52 65/65/52
f 22/21/53 20/19/53 74/19/53 75/21/53
f 40/39/54 38/37/54 83/37/54 84/39/54
f 58/57/55 56/55/55 92/55/55 93/57/55
f 14/13/56 12/11/56 70/11/56 71/13/56
f 32/31/57 30/29/57 79/29/57 80/31/57
f 50/49/58 48/47/58 88/47/58 89/49/58
f 6/5/59 4/3/59 66/3/59 67/5/59
f 24/23/60 22/21/60 75/21/60 76/23/60
f 42/41/61 40/39/61 84/39/61 85/41/61
f 60/59/62 58/57/62 93/57/62 94/59/62
f 16/15/63 14/13/63 71/13/63 72/15/63
f 34/33/64 32/31/64 80/31/64 81/33/64
f 15/16/65 17/18/65 105/18/65 104/16/65
f 33/34/66 35/36/66 114/36/66 113/34/66
f 51/52/67 53/54/67 123/54/67 122/52/67
f 7/8/68 9/10/68 101/10/68 100/8/68
f 25/26/69 27/28/69 110/28/69 109/26/69
f 43/44/70 45/46/70 119/46/70 118/44/70
f 61/62/71 63/64/71 128/64/71 127/62/71
f 17/18/72 19/20/72 106/20/72 105/18/72
f 35/36/73 37/38/73 115/38/73 114/36/73
f 53/54/74 55/56/74 124/56/74 123/54/74
f 9/10/75 11/12/75 102/12/75 101/10/75
f 27/28/76 29/30/76 111/30/76 110/28/76
f 45/46/77 47/48/77 120/48/77 119/46/77
f 1/1/78 3/4/78 98/4/78 97/1/78
f 63/64/79 1/66/79 97/66/79 128/64/79
f 19/20/80 21/22/80 107/22/80 106/20/80
f 37/38/81 39/40/81 116/40/81 115/38/81
f 55/56/82 57/58/82 125/58/82 124/56/82
f 11/12/83 13/14/83 103/14/83 102/12/83
f 29/30/84 31/32/84 112/32/84 111/30/84
f 47/48/85 49/50/85 121/50/85 120/48/85
f 3/4/86 5/6/86 99/6/86 98/4/86
f 21/22/87 23/24/87 108/24/87 107/22/87
f 39/40/88 41/42/88 117/42/88 116/40/88
f 57/58/89 59/60/89 126/60/89 125/58/89
f 13/14/90 15/16/90 104/16/90 103/14/90
f 31/32/91 33/34/91 113/34/91 112/32/91
f 49/50/92 51/52/92 122/52/92 121/50/92
f 5/6/93 7/8/93 100/8/93 99/6/93
f 23/24/94 25/26/94 109/26/94 108/24/94
f 41/42/95 43/44/95 118/44/95 117/42/95
f 59/60/96 61/62/96 127/62/96 126/60/96
f 82/35/97 81/33/97 113/34/97 114/36/97
f 83/37/98 82/35/98 114/36/98 115/38/98
f 84/39/99 83/37/99 115/38/99 116/40/99
f 85/41/100 84/39/100 116/40/100 117/42/100
f 86/43/101 85/41/101 117/42/101 118/44/101
f 87/45/102 86/43/102 118/44/102 119/46/102
f 88/47/103 87/45/103 119/46/103 120/48/103
f 89/49/104 88/47/104 120/48/104 121/50/104
f 90/51/105 89/49/105 121/50/105 122/52/105
f 91/53/106 90/51/106 122/52/106 123/54/106
f 92/55/107 91/53/107 123/54/107 124/56/107
f 93/57/108 92/55/108 124/56/108 125/58/108
f 94/59/109 93/57/109 125/58/109 126/60/109
f 95/61/110 94/59/110 126/60/110 127/62/110
f 96/63/111 95/61/111 127/62/111 128/64/111
f 65/65/112 96/63/112 128/64/112 97/66/112
f 66/3/113 65/65/113 97/1/113 98/4/113
f 67/5/114 66/3/114 98/4/114 99/6/114
f 68/7/115 67/5/115 99/6/115 100/8/115
f 69/9/116 68/7/116 100/8/116 101/10/116
f 70/11/117 69/9/117 101/10/117 102/12/117
f 71/13/118 70/11/118 102/12/118 103/14/118
f 72/15/119 71/13/119 103/14/119 104/16/119
f 73/17/120 72/15/120 104/16/120 105/18/120
f 74/19/121 73/17/121 105/18/121 106/20/121
f 75/21/122 74/19/122 106/20/122 107/22/122
f 76/23/123 75/21/123 107/22/123 108/24/123
f 77/25/124 76/23/124 108/24/124 109/26/124
f 78/27/125 77/25/125 109/26/125 110/28/125
f 79/29/126 78/27/126 110/28/126 111/30/126
f 80/31/127 79/29/127 111/30/127 112/32/127
f 81/33/128 80/31/128 112/32/128 113/34/128
